<?xml version="1.0" encoding="UTF-8"?>
<svg version="1.1" xmlns="http://www.w3.org/2000/svg" width="700" height="700">
<path d="M0 0 C3 3.625 3 3.625 3 7 C3.66 7.33 4.32 7.66 5 8 C4.67 8.99 4.34 9.98 4 11 C4.99 11 5.98 11 7 11 C7.1953125 13.05078125 7.390625 15.1015625 7.5859375 17.15234375 C7.72257812 17.76207031 7.85921875 18.37179688 8 19 C8.66 19.33 9.32 19.66 10 20 C10 20.66 10 21.32 10 22 C10.66 22.33 11.32 22.66 12 23 C11.67 24.98 11.34 26.96 11 29 C11.66 29 12.32 29 13 29 C13 30.65 13 32.3 13 34 C13.99 33.505 13.99 33.505 15 33 C14.34 35.64 13.68 38.28 13 41 C14.485 40.505 14.485 40.505 16 40 C15.85904936 41.6254308 15.71207913 43.25034051 15.5625 44.875 C15.48128906 45.77992188 15.40007812 46.68484375 15.31640625 47.6171875 C15 50 15 50 14 52 C14.99 52.495 14.99 52.495 16 53 C15.89171875 53.88751953 15.89171875 53.88751953 15.78125 54.79296875 C14.73157446 62.47274882 14.73157446 62.47274882 16 70 C16 71.32 16 72.64 16 74 C16.01160156 74.7321875 16.02320313 75.464375 16.03515625 76.21875 C16.04417969 76.9715625 16.05320312 77.724375 16.0625 78.5 C16.07410156 79.2528125 16.08570313 80.005625 16.09765625 80.78125 C16 83 16 83 15.43359375 85.15625 C14.77351092 87.08043324 14.77351092 87.08043324 16 89 C15.51171875 91.390625 15.51171875 91.390625 14.6875 94.25 C14.26210938 95.74466797 14.26210938 95.74466797 13.828125 97.26953125 C13.25007526 99.1754594 12.61493492 101.06459169 11.9375 102.9375 C11.03475437 105.88646907 10.57418746 108.64083723 10.125 111.6875 C9.47436156 115.96690239 8.4625701 119.6274075 6.8125 123.625 C4.68112513 129.02815327 4.8756156 133.36585641 6 139 C5.01 138.67 4.02 138.34 3 138 C2.33203125 136.28515625 2.33203125 136.28515625 1.8125 134.0625 C0.26182366 128.88537422 -2.57057742 125.55573335 -6.00390625 121.4609375 C-11.79087349 114.32632036 -14.21680495 106.92628275 -16 98 C-16.17136475 97.24565674 -16.34272949 96.49131348 -16.51928711 95.71411133 C-18.08053004 88.27866592 -18.27694004 81.04578901 -18.20581055 73.46264648 C-18.1872443 71.40921938 -18.18530366 69.35623771 -18.18554688 67.30273438 C-18.14074248 57.28148496 -18.14074248 57.28148496 -17 55 C-16.73841776 53.03813322 -16.47995642 51.07565266 -16.25390625 49.109375 C-15.92656961 46.38996291 -15.47208001 43.69760004 -15 41 C-14.34 41 -13.68 41 -13 41 C-13 39.02 -13 37.04 -13 35 C-12.67 35 -12.34 35 -12 35 C-11.9175 34.113125 -11.835 33.22625 -11.75 32.3125 C-11 29 -11 29 -9.0546875 26.74609375 C-6.56440026 23.41782012 -6.08224678 20.82305974 -5.375 16.75 C-4.97622043 14.48868527 -4.53211233 12.23370229 -4 10 C-3.34 9.67 -2.68 9.34 -2 9 C-1.61067967 7.01014051 -1.28112064 5.00800456 -1 3 C-0.67 2.01 -0.34 1.02 0 0 Z " fill="#23D84B" transform="translate(296,233)"/>
<path d="M0 0 C3.06381504 2.68083816 4.70917463 4.87752388 6 8.75 C6.0845387 11.1910776 6.11605786 13.60259213 6.09765625 16.04296875 C6.0962413 16.74899734 6.09482635 17.45502594 6.09336853 18.18244934 C6.08777764 20.43417626 6.07522688 22.68580321 6.0625 24.9375 C6.05748382 26.46549335 6.05292112 27.99348827 6.04882812 29.52148438 C6.0378112 33.26436135 6.02055287 37.00716373 6 40.75 C3.36 41.08 0.72 41.41 -2 41.75 C-2.029729 40.66900024 -2.029729 40.66900024 -2.06005859 39.56616211 C-2.1558366 36.27293328 -2.26530117 32.98029332 -2.375 29.6875 C-2.4059375 28.55376953 -2.436875 27.42003906 -2.46875 26.25195312 C-2.73622384 17.80800114 -2.73622384 17.80800114 -5 9.75 C-8.3901543 7.48989713 -10.04312668 7.52626979 -14 8.14453125 C-17.31619576 9.1484577 -18.92287834 11.0619602 -21 13.75 C-22.8838024 17.61690536 -23.2923492 20.86428011 -23.4140625 25.14453125 C-23.45273438 26.34658203 -23.49140625 27.54863281 -23.53125 28.78710938 C-23.5621875 30.03298828 -23.593125 31.27886719 -23.625 32.5625 C-23.66367188 33.82771484 -23.70234375 35.09292969 -23.7421875 36.39648438 C-23.83630657 39.51417851 -23.92194361 42.63186914 -24 45.75 C-26.64 46.08 -29.28 46.41 -32 46.75 C-32.01981934 46.0293335 -32.03963867 45.30866699 -32.06005859 44.56616211 C-32.1558366 41.27293328 -32.26530117 37.98029332 -32.375 34.6875 C-32.4059375 33.55376953 -32.436875 32.42003906 -32.46875 31.25195312 C-32.67179847 25.44815098 -32.90594986 20.19911589 -35 14.75 C-37.45617084 12.64471071 -38.71058162 12.73152649 -41.9375 12.9375 C-45.29671785 13.82872106 -47.32677253 14.51026888 -50 16.75 C-53.44142882 23.78357715 -53.50553529 30.45216028 -53.625 38.1875 C-53.67573753 40.54045307 -53.73020996 42.89332966 -53.7890625 45.24609375 C-53.80662598 46.27919678 -53.82418945 47.3122998 -53.84228516 48.37670898 C-54 50.75 -54 50.75 -55 51.75 C-57.64 51.75 -60.28 51.75 -63 51.75 C-63 37.56 -63 23.37 -63 8.75 C-58.545 8.255 -58.545 8.255 -54 7.75 C-53.67 8.41 -53.34 9.07 -53 9.75 C-51.9171875 8.821875 -51.9171875 8.821875 -50.8125 7.875 C-45.43807757 3.81432527 -40.62456043 2.95691882 -34 3.75 C-30.5625 5.1875 -30.5625 5.1875 -28 6.75 C-27.34 7.08 -26.68 7.41 -26 7.75 C-25.505 7.0075 -25.01 6.265 -24.5 5.5 C-18.13580104 -1.50061886 -8.87231142 -3.69679643 0 0 Z " fill="#D71414" transform="translate(210,292.25)"/>
<path d="M0 0 C0 14.52 0 29.04 0 44 C-4.455 44.495 -4.455 44.495 -9 45 C-9.495 43.02 -9.495 43.02 -10 41 C-10.886875 41.78375 -11.77375 42.5675 -12.6875 43.375 C-17.97264789 48.04559581 -23.2908485 48.44211629 -30.12109375 48.31640625 C-34.03539091 47.88620534 -36.12470329 46.65964946 -39 44 C-39.7425 43.34 -40.485 42.68 -41.25 42 C-45.30353016 35.05109115 -45.70956248 26.87931519 -43.75390625 19.1796875 C-41.40458307 12.38734381 -36.06157185 6.9936168 -29.65234375 3.84765625 C-26.65039054 2.88826914 -24.1483245 2.69954716 -21 2.6875 C-19.989375 2.67074219 -18.97875 2.65398437 -17.9375 2.63671875 C-14.61794266 3.04724911 -12.72114029 4.10420557 -10 6 C-9.67 4.35 -9.34 2.7 -9 1 C-5.72921858 0.03087958 -3.60964568 0 0 0 Z M-33.4375 18.0625 C-35.79642769 22.82138021 -35.87809544 27.83244722 -35 33 C-33.70711304 36.05645627 -32.73991034 36.83090431 -30 39 C-25.92442585 40.4645287 -22.90042106 40.30014035 -18.8125 38.9375 C-13.64370695 35.3767759 -10.24158123 31.20790614 -9 25 C-8.93095426 20.62422628 -9.50579959 17.74927159 -11.9375 14.0625 C-14.77086284 11.22913716 -15.5922829 11.0345523 -19.6875 10.6875 C-25.95969594 10.80133296 -29.59089407 13.22958485 -33.4375 18.0625 Z " fill="#D81515" transform="translate(138,303)"/>
<path d="M0 0 C1.12148437 -0.02578125 2.24296875 -0.0515625 3.3984375 -0.078125 C6.91606057 0.27959938 8.77265975 1.22024477 11.625 3.25 C11.955 2.26 12.285 1.27 12.625 0.25 C15.595 0.25 18.565 0.25 21.625 0.25 C21.625 14.44 21.625 28.63 21.625 43.25 C18.655 43.25 15.685 43.25 12.625 43.25 C12.295 42.26 11.965 41.27 11.625 40.25 C10.67625 40.889375 9.7275 41.52875 8.75 42.1875 C2.78541512 45.55460437 -3.54472315 46.03354305 -10.125 44.25 C-15.93173021 41.99924971 -19.07283655 37.91351614 -21.75 32.4375 C-23.51341037 23.4441071 -22.57404836 15.21404056 -17.5625 7.4375 C-12.18258728 2.05758728 -7.49108587 0.10285244 0 0 Z M-7.375 10.25 C-10.35359422 13.22859422 -12.35112532 16.15450129 -13.375 20.25 C-13.375 25.55123693 -12.73378929 29.98692128 -9.375 34.25 C-6.02574132 36.48283912 -4.37023109 37.02385484 -0.375 37.25 C4.02308787 36.30936849 6.94470836 34.96517839 10.0625 31.6875 C13.29537254 26.64421883 13.20882936 22.15501699 12.625 16.25 C10.77003661 12.09488201 9.00243899 10.1983677 4.9375 8.375 C0.15560585 6.75096048 -2.89406121 8.05757186 -7.375 10.25 Z " fill="#D81515" transform="translate(245.375,285.75)"/>
<path d="M0 0 C1.2375 0.04125 2.475 0.0825 3.75 0.125 C2.38733356 4.16305866 0.6090849 6.66868118 -2.3125 9.75 C-5.70973695 13.42209431 -9.0008096 17.1429702 -12.1875 21 C-12.91839844 21.88429688 -13.64929688 22.76859375 -14.40234375 23.6796875 C-16.0033223 25.79853015 -17.1112477 27.74691558 -18.25 30.125 C-17.58355469 30.77573486 -16.91710937 31.42646973 -16.23046875 32.09692383 C-13.7644754 34.51182973 -11.30534969 36.93331972 -8.85058594 39.35961914 C-7.78621043 40.40889597 -6.71915963 41.45546611 -5.64941406 42.49926758 C-4.11334394 43.99900209 -2.58711775 45.50816681 -1.0625 47.01953125 C-0.14082031 47.92550049 0.78085938 48.83146973 1.73046875 49.76489258 C3.75 52.125 3.75 52.125 3.75 55.125 C-0.00086838 56.03056183 -3.39593307 56.50082197 -7.25 56.125 C-10.76483439 53.94568629 -13.15132276 51.05965349 -15.75 47.875 C-16.43835938 47.08480469 -17.12671875 46.29460937 -17.8359375 45.48046875 C-19.11112661 44.01424936 -20.37266322 42.53595453 -21.61523438 41.04199219 C-23.07672799 39.32818576 -24.6573456 37.7176544 -26.25 36.125 C-26.58 43.055 -26.91 49.985 -27.25 57.125 C-29.89 57.125 -32.53 57.125 -35.25 57.125 C-35.25 38.975 -35.25 20.825 -35.25 2.125 C-32.61 2.125 -29.97 2.125 -27.25 2.125 C-26.92 9.055 -26.59 15.985 -26.25 23.125 C-20.69020319 17.03569873 -15.364122 10.87789962 -10.29296875 4.375 C-7.12641748 0.88755538 -4.67092633 -0.15569754 0 0 Z " fill="#D71515" transform="translate(86.25,298.875)"/>
</svg>
